<?xml version="1.0" encoding="UTF-8" standalone="no"?><!DOCTYPE svg PUBLIC "-//W3C//DTD SVG 1.1//EN" "http://www.w3.org/Graphics/SVG/1.1/DTD/svg11.dtd"><svg width="100%" height="100%" viewBox="0 0 600 562" version="1.1" xmlns="http://www.w3.org/2000/svg" xmlns:xlink="http://www.w3.org/1999/xlink" xml:space="preserve" xmlns:serif="http://www.serif.com/" style="fill-rule:evenodd;clip-rule:evenodd;stroke-linecap:round;stroke-linejoin:round;stroke-miterlimit:1.5;"><g id="Edge"><path d="M85.879,227.928l21.015,176.406l60.648,-115.197l-81.663,-61.209Z" style="fill:none;stroke:#747474;stroke-width:6.5px;"/><path d="M225.242,74.297l-99.598,61.725l-39.765,91.906l139.363,-153.631Z" style="fill:none;stroke:#747474;stroke-width:6.5px;"/><path d="M233.58,182.259l-8.338,-107.962l-139.363,153.631l147.701,-45.669Z" style="fill:none;stroke:#747474;stroke-width:6.5px;"/><path id="p" d="M488.976,127.476l-86.869,44.163l-168.527,10.62l-8.338,-107.474l141.24,-18.75l122.494,71.441Z" style="fill:none;stroke:#747474;stroke-width:6.5px;"/><path d="M531.229,245.887l-24.974,140.944l-17.279,-259.355l42.253,118.411Z" style="fill:none;stroke:#747474;stroke-width:6.5px;"/><path d="M428.055,299.625l-141.41,43.125l89.203,77.273l130.407,-33.192l-78.2,-87.206Z" style="fill:none;stroke:#747474;stroke-width:6.5px;"/><path d="M290.867,505.851l-76.037,-75.554l71.815,-87.547l4.222,163.101Z" style="fill:none;stroke:#747474;stroke-width:6.5px;"/><path d="M375.848,420.023l-84.981,85.828l-183.667,-101.226l107.63,25.672l71.815,-87.547l-118.323,-53.249l118.323,53.249l-51.807,-160.491" style="fill:none;stroke:#747474;stroke-width:6.5px;"/><path d="M488.976,128.477l-59.812,171.148l77.091,87.893l-17.279,-259.041" style="fill:none;stroke:#747474;stroke-width:6.5px;"/><path d="M506.255,387.518l-219.61,118.333l219.61,-118.333Z" style="fill:none;stroke:#747474;stroke-width:6.5px;"/><path d="M489.251,128.477l-264.009,-54.18l264.009,54.18Z" style="fill:none;stroke:#747474;stroke-width:6.5px;"/><path d="M286.645,344.055l202.606,-215.578" style="fill:none;stroke:#747474;stroke-width:6.5px;"/></g><g id="L"><circle cx="85.879" cy="227.928" r="46.875" style="fill:#28fae6;"/><circle cx="286.645" cy="342.75" r="61.875" style="fill:#28fae6;"/><circle cx="506.255" cy="386.831" r="50.625" style="fill:#28fae6;"/></g><g id="M"><circle cx="290.867" cy="505.851" r="31.875" style="fill:#8cff7f;"/><circle cx="106.894" cy="404.334" r="26.25" style="fill:#8cff7f;"/><circle cx="225.242" cy="74.297" r="33.75" style="fill:#8cff7f;"/><circle cx="488.976" cy="127.476" r="26.25" style="fill:#8cff7f;"/></g><g id="S"><circle cx="531.229" cy="245.887" r="16.875" style="fill:#eeedab;"/><circle cx="428.055" cy="299.625" r="18.75" style="fill:#eeedab;"/><circle cx="375.848" cy="420.023" r="18.75" style="fill:#eeedab;"/><circle cx="214.83" cy="430.297" r="16.875" style="fill:#eeedab;"/><circle cx="167.542" cy="289.137" r="15" style="fill:#eeedab;"/><circle cx="233.58" cy="182.259" r="18.75" style="fill:#eeedab;"/><ellipse cx="402.107" cy="171.639" rx="16.875" ry="16.867" style="fill:#eeedab;"/><circle cx="366.482" cy="56.035" r="18.75" style="fill:#eeedab;"/><circle cx="125.644" cy="136.022" r="18.75" style="fill:#eeedab;"/></g></svg>